# xmcd
#
# Track frame offsets: 
#        150
#        24107
#        39325
#        61215
#        79465
#        101497
#        123095
#        143965
#        165587
#        183582
#
# Disc length: 2700 seconds
#
# Revision: 0
# Processed by: cddbd v1.5.2PL0 Copyright (c) Steve Scherf et al.
# Submitted via: ExactAudioCopy v1.0b1
#
DISCID=790a8a0a
DTITLE=文章 - 情商情傷
DYEAR=1990
DGENRE=Country
TTITLE0=情商
TTITLE1=我說愛人（情傷）
TTITLE2=愛我或是讓我孤獨
TTITLE3=心的長城
TTITLE4=這一季的思念向我吹來
TTITLE5=錦繡的裸體國王
TTITLE6=思念天天
TTITLE7=為你我都情願
TTITLE8=看我聽我
TTITLE9=夢醒愁未醒
EXTD=
EXTT0=
EXTT1=
EXTT2=
EXTT3=
EXTT4=
EXTT5=
EXTT6=
EXTT7=
EXTT8=
EXTT9=
PLAYORDER=
